<svg
  xmlns="http://www.w3.org/2000/svg"
  width="512"
  height="512"
  viewBox="0 0 512 512"
  version="1.1"
>
  <path
    d="M 78 140.615 C 63.209 141.897, 53.766 143.109, 52.242 143.921 C 51.284 144.431, 48.328 145.401, 45.674 146.076 C 39.895 147.545, 37.657 150.419, 37.690 156.329 C 37.724 162.463, 41.113 167.872, 48.980 174.344 C 58.232 181.955, 60.190 185.682, 63.506 202 C 70.322 235.546, 78.468 256.840, 87.536 264.823 C 95.603 271.924, 108.015 274.889, 133.156 275.720 C 160.571 276.627, 188.036 273.074, 197.888 267.347 C 200.425 265.872, 205.238 261.888, 208.585 258.493 C 219.451 247.469, 226.260 230.754, 233.375 197.632 C 234.777 191.104, 236.655 184.650, 237.547 183.288 C 240.309 179.073, 249.277 175.668, 257.443 175.733 C 271.392 175.845, 277.758 180.804, 280.498 193.693 C 288.750 232.497, 293.834 245.336, 306.175 258.528 C 315.916 268.941, 325.639 272.523, 350.856 274.988 C 363.738 276.247, 387.051 276.248, 397 274.990 C 416.262 272.554, 425.762 268.234, 432.159 259 C 439.323 248.660, 446.835 225.382, 452.589 195.696 C 454.611 185.264, 457.050 181.411, 466.479 173.758 C 470.042 170.866, 472.967 167.713, 472.978 166.750 C 472.990 165.787, 473.378 165, 473.839 165 C 475.179 165, 477.001 160.195, 476.986 156.703 C 476.955 149.351, 474.723 146.961, 466.465 145.441 C 464.284 145.040, 462.272 144.365, 461.994 143.941 C 459.531 140.193, 370.110 139.046, 335 142.312 C 324.825 143.258, 310.200 145.263, 302.500 146.766 L 288.500 149.500 257.500 149.486 L 226.500 149.472 212 146.767 C 187.758 142.245, 167.744 140.839, 123 140.517 C 100.725 140.357, 80.475 140.401, 78 140.615 M 135.073 331.635 C 133.933 333.084, 133 334.833, 133 335.521 C 133 337.502, 140.309 347.841, 147.265 355.699 C 170.128 381.527, 198.494 398.008, 231.536 404.660 C 243.776 407.124, 270.905 407.130, 283.270 404.672 C 308.971 399.562, 331.802 388.197, 352.636 370.143 C 365.657 358.859, 381 339.893, 381 335.081 C 381 332.330, 377.572 329, 374.739 329 C 373.496 329, 369.472 331.017, 365.797 333.482 C 344.354 347.867, 315.214 359.727, 288.226 365.054 C 245.006 373.585, 194.409 362.549, 150.837 335.090 C 145.523 331.740, 140.268 329, 139.160 329 C 138.052 329, 136.212 330.186, 135.073 331.635"
    stroke="none"
    fill="#342f2c"
    fill-rule="evenodd"
  />
  <path
    d="M 230.718 23.293 C 230.417 24.077, 226.551 25.106, 220.896 25.906 C 192.122 29.978, 159.375 42.169, 133.730 58.354 C 103.842 77.218, 77.032 104.026, 58.439 133.641 C 55.442 138.416, 53.151 142.484, 53.349 142.682 C 53.546 142.880, 58.161 142.471, 63.604 141.773 C 70.328 140.911, 87.604 140.518, 117.500 140.545 C 166.252 140.590, 185.816 141.878, 212 146.766 L 226.500 149.472 257.500 149.486 L 288.500 149.500 302.500 146.768 C 323.115 142.745, 347.079 140.910, 387 140.299 C 419.396 139.802, 445.106 140.662, 457.250 142.648 C 459.325 142.988, 461 142.848, 461 142.336 C 461 141.144, 449.335 123.663, 442.194 114.153 C 435.104 104.711, 418.242 87.120, 407.713 78.181 C 387.257 60.814, 356.728 43.574, 331.500 35.142 C 318.709 30.867, 301.730 26.864, 288.250 24.945 C 283.712 24.298, 280 23.372, 280 22.885 C 280 22.396, 269.088 22, 255.607 22 C 236.582 22, 231.105 22.285, 230.718 23.293 M 40.012 169.978 C 35.768 177.908, 28.268 204.870, 25.890 220.750 C 25.040 226.421, 24.230 229, 23.298 229 C 22.189 229, 21.958 233.565, 22.034 253.938 C 22.085 267.654, 22.502 279.016, 22.959 279.188 C 23.417 279.360, 24.513 284.458, 25.396 290.518 C 31.167 330.130, 46.644 366.408, 72.315 400.500 C 79.945 410.632, 104.140 434.790, 114.091 442.211 C 133.664 456.809, 153.449 467.942, 174.175 476.021 C 185.636 480.489, 212.170 487.467, 221.864 488.564 C 225.311 488.954, 228.757 489.900, 229.523 490.666 C 230.645 491.788, 235.860 492.041, 256.395 491.967 C 270.409 491.916, 282.016 491.493, 282.188 491.026 C 282.359 490.559, 288.275 489.206, 295.333 488.019 C 369.138 475.608, 433.463 428.008, 466.308 361.500 C 477.999 337.826, 484.653 317.252, 488.461 293 C 489.368 287.225, 490.493 282.364, 490.962 282.198 C 492.249 281.741, 492.319 231.273, 491.033 230.844 C 490.455 230.652, 489.296 226.221, 488.457 220.997 C 486.458 208.559, 480.786 186.684, 476.868 176.302 L 473.750 168.042 470.625 170.229 C 468.906 171.432, 464.727 175.167, 461.337 178.529 C 454.493 185.316, 455.160 183.574, 449.580 209.253 C 443.837 235.680, 438.105 251.336, 430.550 261.231 C 426.263 266.846, 417.937 271.183, 407 273.501 C 396.494 275.726, 368.161 276.547, 352.397 275.083 C 325.610 272.594, 316.170 269.213, 306.175 258.528 C 293.834 245.336, 288.750 232.497, 280.498 193.693 C 277.758 180.804, 271.392 175.845, 257.443 175.733 C 249.277 175.668, 240.309 179.073, 237.547 183.288 C 236.655 184.650, 234.777 191.104, 233.375 197.632 C 226.260 230.754, 219.451 247.469, 208.585 258.493 C 205.238 261.888, 200.425 265.872, 197.888 267.347 C 188.036 273.074, 160.571 276.627, 133.156 275.720 C 108.015 274.889, 95.603 271.924, 87.536 264.823 C 78.468 256.840, 70.322 235.546, 63.506 202 C 60.291 186.178, 58.290 182.159, 50.308 175.487 C 47.114 172.817, 43.748 170.003, 42.830 169.233 C 41.367 168.008, 41.016 168.101, 40.012 169.978 M 135.073 331.635 C 133.933 333.084, 133 334.833, 133 335.521 C 133 337.502, 140.309 347.841, 147.265 355.699 C 170.128 381.527, 198.494 398.008, 231.536 404.660 C 243.776 407.124, 270.905 407.130, 283.270 404.672 C 308.971 399.562, 331.802 388.197, 352.636 370.143 C 365.657 358.859, 381 339.893, 381 335.081 C 381 332.330, 377.572 329, 374.739 329 C 373.496 329, 369.472 331.017, 365.797 333.482 C 344.354 347.867, 315.214 359.727, 288.226 365.054 C 245.006 373.585, 194.409 362.549, 150.837 335.090 C 145.523 331.740, 140.268 329, 139.160 329 C 138.052 329, 136.212 330.186, 135.073 331.635"
    stroke="none"
    fill="#fbcb4b"
    fill-rule="evenodd"
  />
</svg>
